<svg width="40" height="35" viewBox="0 0 40 35" fill="none" xmlns="http://www.w3.org/2000/svg">
<path d="M38.1642 3.13857L31.2032 0.238496C30.4396 -0.0795507 29.5638 -0.0794727 28.8003 0.238574L25.4581 1.63068C25.1593 1.75521 25.018 2.09818 25.1425 2.39693C25.2669 2.69568 25.6099 2.83709 25.9087 2.71256L29.2509 1.32037C29.7278 1.12162 30.2753 1.12154 30.7526 1.32029L37.7133 4.22022C38.3903 4.50264 38.8279 5.13771 38.8279 5.83795V30.8965C38.8279 31.871 37.991 32.6637 36.9623 32.6637H36.0123C35.6886 32.6637 35.4264 32.926 35.4264 33.2497C35.4264 33.5733 35.6886 33.8356 36.0123 33.8356H36.9623C38.6371 33.8356 39.9998 32.5172 39.9998 30.8965V5.83795C39.9998 4.66326 39.2793 3.60373 38.1642 3.13857Z" fill="#004989"/>
<path d="M33.4586 32.6639H23.6133C24.0187 32.2031 24.2406 31.6185 24.2406 30.9998C24.2406 30.3824 24.0171 29.8165 23.6473 29.3778C23.8805 29.2588 24.0964 29.1031 24.287 28.9125C24.763 28.4365 25.025 27.8036 25.025 27.1303C25.025 26.4884 24.7834 25.9021 24.387 25.4567C24.5833 25.3455 24.7661 25.2077 24.9298 25.0438C25.4058 24.5679 25.6679 23.935 25.6679 23.2615C25.6679 22.6215 25.4278 22.0367 25.0336 21.5917C25.2332 21.4796 25.4191 21.3401 25.5859 21.1738C26.0615 20.6971 26.3234 20.0643 26.3234 19.3919C26.3234 18.0017 25.1927 16.8708 23.803 16.8708H21.1756V5.838C21.1756 5.13769 21.6132 4.50261 22.2899 4.22034L23.3556 3.77659C23.6544 3.65222 23.7957 3.30925 23.6713 3.01042C23.5469 2.71167 23.2039 2.57011 22.9052 2.69472L21.8391 3.13862C20.7241 3.6037 20.0037 4.66331 20.0037 5.838V16.8709H17.5555C18.3708 14.2946 18.3014 11.606 17.35 8.48542C17.2055 8.01284 16.918 7.60808 16.5184 7.31487C16.1211 7.02347 15.6503 6.86933 15.1568 6.86933C14.521 6.86933 13.9298 7.12323 13.492 7.58425C13.0545 8.04519 12.8316 8.64862 12.8646 9.28331C13.0478 12.8065 11.4227 14.0192 9.17336 15.6977C8.43281 16.2503 7.62344 16.8546 6.82797 17.5958V16.8278C6.82797 16.5042 6.5657 16.2419 6.24203 16.2419H0.585938C0.262266 16.2419 0 16.5042 0 16.8278V33.4458C0 33.7695 0.262266 34.0317 0.585938 34.0317H6.24219C6.56586 34.0317 6.82812 33.7695 6.82812 33.4458V31.9717C7.94102 32.0776 8.75383 32.2994 9.54352 32.9046C10.062 33.302 10.701 33.5208 11.343 33.5208H21.6766C22.0988 33.7266 22.5669 33.8357 23.0413 33.8357H33.4585C33.7822 33.8357 34.0445 33.5734 34.0445 33.2497C34.0445 32.926 33.7822 32.6639 33.4586 32.6639ZM10.2564 31.9745C9.15156 31.1278 7.97078 30.8926 6.82812 30.7939V23.9521C6.82812 23.6285 6.56586 23.3662 6.24219 23.3662C5.91852 23.3662 5.65625 23.6285 5.65625 23.9521V32.86H1.17188V17.4139H5.65625V21.3991C5.65625 21.7228 5.91852 21.985 6.24219 21.985C6.56586 21.985 6.82812 21.7228 6.82812 21.3991V19.2604C7.80828 18.1788 8.85781 17.3956 9.87437 16.637C12.1251 14.9575 14.2509 13.3711 14.0352 9.22253C14.019 8.91198 14.128 8.61675 14.3422 8.3912C14.5564 8.1655 14.8458 8.04128 15.157 8.04128C15.3995 8.04128 15.6305 8.11683 15.8252 8.2598C16.0197 8.40245 16.1595 8.59901 16.2295 8.82784C17.1984 12.0064 17.1833 14.6806 16.1817 17.2438C16.1113 17.4241 16.1345 17.6275 16.2436 17.7875C16.3527 17.9474 16.5338 18.043 16.7274 18.043H23.8031C24.5467 18.043 25.1516 18.6482 25.1516 19.3922C25.1516 19.752 25.0113 20.0908 24.7573 20.3454C24.5018 20.6003 24.163 20.7407 23.8031 20.7407H21.3961C21.0724 20.7407 20.8102 21.0029 20.8102 21.3266C20.8102 21.6503 21.0724 21.9125 21.3961 21.9125H23.1477C23.8912 21.9125 24.4961 22.5178 24.4961 23.2618C24.4961 23.6222 24.3559 23.9609 24.1012 24.2155C23.8467 24.4701 23.508 24.6103 23.1477 24.6103H21.3961C21.0724 24.6103 20.8102 24.8725 20.8102 25.1962C20.8102 25.5199 21.0724 25.7821 21.3961 25.7821H22.5046C23.2482 25.7821 23.8531 26.3871 23.8531 27.1306C23.8531 27.4909 23.7129 27.8296 23.4584 28.0842C23.2032 28.3394 22.8645 28.4798 22.5046 28.4798H20.753C20.4294 28.4798 20.1671 28.7421 20.1671 29.0657C20.1671 29.3894 20.4294 29.6517 20.753 29.6517H21.7202C22.4638 29.6517 23.0688 30.2566 23.0688 31.0001C23.0688 31.3604 22.9284 31.6995 22.6745 31.954C22.4365 32.1914 22.0605 32.3429 21.7792 32.3479C21.7598 32.3482 11.343 32.3493 11.343 32.3493C10.9573 32.3489 10.5714 32.216 10.2564 31.9745Z" fill="#004989"/>
<path d="M32.1183 6.09821C32.1183 4.86696 31.1166 3.86523 29.8853 3.86523C28.6541 3.86523 27.6523 4.86696 27.6523 6.09821C27.6523 7.32946 28.6541 8.33118 29.8853 8.33118C31.1166 8.33118 32.1183 7.32946 32.1183 6.09821ZM28.8242 6.09821C28.8242 5.51313 29.3002 5.03711 29.8853 5.03711C30.4704 5.03711 30.9464 5.51313 30.9464 6.09821C30.9464 6.68329 30.4704 7.1593 29.8853 7.1593C29.3002 7.1593 28.8242 6.68336 28.8242 6.09821Z" fill="#004989"/>
<path d="M30.2497 26.0912H29.1988C28.6453 26.0912 28.195 25.6408 28.195 25.0873C28.195 24.7636 27.9327 24.5014 27.609 24.5014C27.2854 24.5014 27.0231 24.7636 27.0231 25.0873C27.0231 26.2668 27.9665 27.2293 29.1383 27.2615V28.5583C29.1383 28.8819 29.4005 29.1442 29.7242 29.1442C30.0479 29.1442 30.3101 28.8819 30.3101 28.5583V27.2615C31.4819 27.2293 32.4254 26.2668 32.4254 25.0873V24.2761C32.4254 23.5236 31.9445 22.8618 31.2287 22.6291L28.5818 21.7693C28.3504 21.6941 28.195 21.4802 28.195 21.2369V20.0754C28.195 19.6259 28.5607 19.2601 29.0102 19.2601H30.4383C30.8879 19.2601 31.2536 19.6259 31.2536 20.0754C31.2536 20.3991 31.5158 20.6614 31.8395 20.6614C32.1632 20.6614 32.4254 20.3991 32.4254 20.0754C32.4254 18.9797 31.534 18.0882 30.4383 18.0882H30.3101V16.7931C30.3101 16.4694 30.0479 16.2071 29.7242 16.2071C29.4005 16.2071 29.1383 16.4694 29.1383 16.7931V18.0882H29.0101C27.9145 18.0882 27.023 18.9796 27.023 20.0754V21.2369C27.023 21.9895 27.5039 22.6513 28.2197 22.8839L30.8665 23.7436C31.0979 23.8189 31.2534 24.0329 31.2534 24.2761V25.0873C31.2536 25.6408 30.8032 26.0912 30.2497 26.0912Z" fill="#004989"/>
</svg>
