<svg width="40" height="36" viewBox="0 0 40 36" fill="none" xmlns="http://www.w3.org/2000/svg">
<path d="M24.3531 12.4063L40 3.37254L38.0529 0L35.4144 1.52331L34.6793 0.24995L33.6469 0.846016L34.3821 2.11937L25.6065 7.18593L26.2026 8.21832L37.6166 1.62845L38.3716 2.93622L11.8541 18.246L11.6323 17.5187C11.4967 17.074 11.6832 16.601 12.0858 16.3685L25.1702 8.81431L24.5742 7.78192L19.2859 10.835L18.6751 9.77715L19.0925 9.75927L24.645 6.55355L22.0993 2.14433L16.5363 5.35609L15.8907 6.46302L11.3363 9.09263L9.96306 9.15128L6.75074 11.0059L9.29642 15.4151L12.4555 13.5912L12.7901 13.0949L13.4354 14.2127L11.4897 15.3361C10.6039 15.8475 10.1936 16.888 10.492 17.8663L10.7948 18.8593C9.58325 19.5781 8.71601 20.7198 8.3509 22.0828L8.05327 23.1934L0.695984 27.4412C0.374268 27.6269 0.144107 27.9269 0.0479415 28.2857C-0.0481444 28.6446 0.0012099 29.0194 0.186944 29.3411L3.38893 34.8869C3.61679 35.2818 4.02418 35.54 4.47854 35.5777C4.51693 35.5808 4.55531 35.5824 4.59338 35.5824C4.99815 35.5824 5.38496 35.4057 5.64993 35.096L7.37518 33.3056L6.51677 32.4784L4.77761 34.2833L4.74661 34.318C4.68907 34.3878 4.61579 34.3929 4.57685 34.3897C4.53823 34.3864 4.46646 34.3694 4.42124 34.291L1.21925 28.745C1.18349 28.683 1.19143 28.624 1.19938 28.5943C1.20741 28.5646 1.22998 28.5095 1.29197 28.4737L8.34685 24.4006L8.88331 25.3297L9.9157 24.7336L9.20463 23.5021L9.50218 22.3915C9.79052 21.3153 10.4807 20.4157 11.4454 19.8585L21.7838 13.8896L23.3207 13.0023L24.2172 14.5552C24.7102 15.4092 24.4166 16.505 23.5627 16.998L13.4148 22.8568L11.6634 27.1375L7.37773 31.5851L8.23614 32.4123L12.6804 27.8004L13.3498 26.1644C13.8864 26.6041 14.5594 26.8419 15.2452 26.8419C15.7505 26.8419 16.2623 26.7135 16.7304 26.4432L17.7542 25.852C18.4437 25.454 18.9368 24.8113 19.1429 24.0424C19.349 23.2734 19.2432 22.4702 18.8451 21.7808L18.5495 21.269L24.159 18.0303C25.5822 17.2087 26.0715 15.3823 25.2499 13.9591L24.3531 12.4063ZM12.3221 9.90002L16.1076 7.71444L16.8254 8.95768L13.0398 11.1433L12.3221 9.90002ZM21.663 3.77294L23.0165 6.11739L18.7496 8.58089L18.0028 8.61283L17.0149 6.90181L17.4065 6.2304L21.663 3.77294ZM11.621 12.6965L9.73274 13.7867L8.3792 11.4422L10.3059 10.3297L11.1722 10.2927L12.1269 11.9462L11.621 12.6965ZM13.6359 12.1757L17.4214 9.99014L18.2535 11.4312L14.4679 13.6168L13.6359 12.1757ZM17.8125 22.377C18.0514 22.7907 18.1149 23.2726 17.9912 23.7339C17.8675 24.1953 17.5717 24.5809 17.1581 24.8197L16.1343 25.4108C15.3568 25.8596 14.3788 25.6562 13.8378 24.9715L14.2143 24.0515L15.7381 24.6843L16.1953 23.5833L15.2331 23.1837L17.517 21.8651L17.8125 22.377Z" fill="#004989"/>
<path d="M17.0843 19.4472L16.4883 18.4148L17.5207 17.8187L18.1167 18.8511L17.0843 19.4472ZM19.1492 18.255L18.5531 17.2226L19.5855 16.6266L20.1816 17.659L19.1492 18.255ZM21.214 17.0629L20.618 16.0305L21.6504 15.4344L22.2464 16.4668L21.214 17.0629Z" fill="#004989"/>
</svg>
