<svg width="40" height="40" viewBox="0 0 40 40" fill="none" xmlns="http://www.w3.org/2000/svg">
<path d="M1.81578 17.4794H5.17121C5.36968 18.195 5.65556 18.8835 6.02319 19.5287L3.64825 21.9027C3.53484 22.0161 3.47105 22.1699 3.47105 22.3306C3.47105 22.4913 3.53484 22.6451 3.64825 22.7585L6.21409 25.325C6.45035 25.5608 6.8331 25.5608 7.06937 25.325L9.44454 22.9496C10.0898 23.317 10.7775 23.6031 11.4932 23.8013V27.1568C11.4932 27.4909 11.764 27.7616 12.098 27.7616H15.7271C16.0611 27.7616 16.3319 27.4909 16.3319 27.1568V23.8013C17.0476 23.6031 17.7353 23.317 18.3806 22.9496L20.7557 25.325C20.9958 25.5518 21.3712 25.5518 21.611 25.325L24.1773 22.7585C24.2907 22.6451 24.3545 22.4913 24.3545 22.3306C24.3545 22.1699 24.2907 22.0161 24.1773 21.9027L21.8019 19.5287C22.1695 18.8835 22.4554 18.195 22.6539 17.4794H26.0093C26.3434 17.4794 26.6142 17.2086 26.6142 16.8745V13.2455C26.6142 12.9117 26.3434 12.6407 26.0093 12.6407H22.6539C22.4554 11.9252 22.1695 11.2368 21.8019 10.5915L24.1769 8.21754C24.2903 8.10413 24.354 7.95032 24.354 7.78966C24.354 7.629 24.2903 7.47519 24.1769 7.36178L21.611 4.79524C21.3747 4.55921 20.992 4.55921 20.7557 4.79524L18.3806 7.17065C17.7353 6.80349 17.0473 6.51737 16.3319 6.31891V2.96324C16.3319 2.62939 16.0611 2.3584 15.7271 2.3584H12.098C11.764 2.3584 11.4932 2.62939 11.4932 2.96324V6.31891C10.7778 6.51737 10.0898 6.80349 9.44454 7.17065L7.06937 4.79524C6.82932 4.56842 6.4539 4.56842 6.21409 4.79524L3.64778 7.36178C3.53437 7.47519 3.47058 7.629 3.47058 7.78966C3.47058 7.95032 3.53437 8.10413 3.64778 8.21754L6.02319 10.5915C5.65556 11.2368 5.36968 11.9252 5.17121 12.6407H1.81578C1.4817 12.6407 1.21094 12.9117 1.21094 13.2455V16.8745C1.21094 17.2086 1.4817 17.4794 1.81578 17.4794ZM2.42061 13.8503H5.64445C5.92868 13.8503 6.17463 13.6526 6.23535 13.375C6.43381 12.4691 6.7927 11.6058 7.295 10.8261C7.44834 10.587 7.41431 10.273 7.21325 10.072L4.9307 7.78942L6.64173 6.07816L8.92381 8.36071C9.12487 8.56225 9.43911 8.59627 9.67868 8.4427C10.4586 7.94063 11.3217 7.58175 12.2275 7.38305C12.5049 7.32209 12.7029 7.07614 12.7029 6.79191V3.56808H15.1222V6.79191C15.1222 7.07614 15.3202 7.32209 15.5976 7.38305C16.5034 7.58175 17.3665 7.94063 18.1464 8.4427C18.386 8.59627 18.7002 8.56225 18.9013 8.36071L21.1834 6.07816L22.8939 7.78942L20.6118 10.0713C20.4103 10.2726 20.3765 10.5868 20.5301 10.8261C21.0324 11.6063 21.3908 12.4694 21.589 13.3754C21.65 13.6531 21.8959 13.851 22.1799 13.851H25.4045V16.2704H22.1799C21.8959 16.2704 21.65 16.4682 21.589 16.7458C21.3908 17.6516 21.0322 18.5147 20.5301 19.2939C20.3768 19.5332 20.4108 19.8472 20.6118 20.0483L22.8944 22.3304L21.1834 24.0421L18.9013 21.7593C18.7002 21.558 18.386 21.524 18.1464 21.6776C17.367 22.1799 16.5041 22.5387 15.5983 22.7372C15.3205 22.7977 15.1222 23.0439 15.1222 23.3281V26.5519H12.7029V23.3281C12.7029 23.0439 12.5046 22.7977 12.2268 22.7372C11.321 22.5387 10.4581 22.1799 9.67868 21.6776C9.43911 21.524 9.12487 21.558 8.92381 21.7593L6.64173 24.0421L4.93117 22.3308L7.21325 20.0487C7.41479 19.8477 7.44857 19.5335 7.295 19.2939C6.7927 18.514 6.43381 17.6507 6.23535 16.7446C6.1744 16.467 5.92868 16.2697 5.64445 16.2697H2.42061V13.8503Z" fill="#004989"/>
<path d="M13.9129 19.8991C16.5853 19.8991 18.7516 17.733 18.7516 15.0604C18.7516 12.388 16.5853 10.2217 13.9129 10.2217C11.2405 10.2217 9.07422 12.388 9.07422 15.0604C9.07705 17.7314 11.2419 19.8963 13.9129 19.8991ZM13.9129 11.4314C15.9169 11.4314 17.542 13.0564 17.542 15.0604C17.542 17.0646 15.9169 18.6894 13.9129 18.6894C11.9089 18.6894 10.2839 17.0646 10.2839 15.0604C10.286 13.0569 11.9094 11.4335 13.9129 11.4314Z" fill="#004989"/>
<path d="M13.911 21.7137C17.5854 21.7137 20.5643 18.7351 20.5643 15.0605C20.5643 11.3861 17.5854 8.40723 13.911 8.40723C10.2366 8.40723 7.25781 11.3861 7.25781 15.0605C7.2623 18.7332 10.2383 21.7094 13.911 21.7137ZM13.911 9.6169C16.9175 9.6169 19.3546 12.054 19.3546 15.0605C19.3546 18.0669 16.9175 20.504 13.911 20.504C10.9046 20.504 8.46749 18.0669 8.46749 15.0605C8.4708 12.0556 10.906 9.62021 13.911 9.6169Z" fill="#004989"/>
<path d="M35.6867 30.181V25.3423C35.6867 25.0085 35.416 24.7375 35.0819 24.7375H33.8722V19.8988C33.8722 19.5649 33.6015 19.2939 33.2674 19.2939H27.8238C27.4898 19.2939 27.219 19.5649 27.219 19.8988V24.7375H24.1948C23.8607 24.7375 23.59 25.0085 23.59 25.3423V30.181H4.23513C2.56568 30.1832 1.21306 31.5358 1.21094 33.2052V34.4149C1.21306 36.0846 2.56568 37.4372 4.23513 37.4391H35.6867C37.3562 37.4372 38.7088 36.0846 38.7109 34.4149V33.2052C38.7088 31.5358 37.3562 30.1832 35.6867 30.181ZM34.4771 30.181H30.2432V25.9472H34.4771V30.181ZM28.4287 20.5036H32.6625V24.7375H28.4287V20.5036ZM24.7996 25.9472H29.0335V30.181H24.7996V25.9472ZM37.5013 34.4149C37.5013 35.4171 36.6887 36.2294 35.6867 36.2294H4.23513C3.23313 36.2294 2.42061 35.4171 2.42061 34.4149V33.2052C2.42061 32.2032 3.23313 31.3907 4.23513 31.3907H35.6867C36.6887 31.3907 37.5013 32.2032 37.5013 33.2052V34.4149Z" fill="#004989"/>
<path d="M19.96 31.9958C18.958 31.9958 18.1455 32.8084 18.1455 33.8104C18.1455 34.8126 18.958 35.6249 19.96 35.6249C20.962 35.6249 21.7745 34.8126 21.7745 33.8104C21.7745 32.8084 20.962 31.9958 19.96 31.9958ZM19.96 34.4152C19.6259 34.4152 19.3552 34.1444 19.3552 33.8104C19.3552 33.4765 19.6259 33.2055 19.96 33.2055C20.2941 33.2055 20.5649 33.4765 20.5649 33.8104C20.5649 34.1444 20.2941 34.4152 19.96 34.4152Z" fill="#004989"/>
<path d="M13.9112 31.9958C12.9092 31.9958 12.0967 32.8084 12.0967 33.8104C12.0967 34.8126 12.9092 35.6249 13.9112 35.6249C14.9132 35.6249 15.7257 34.8126 15.7257 33.8104C15.7257 32.8084 14.9132 31.9958 13.9112 31.9958ZM13.9112 34.4152C13.5771 34.4152 13.3064 34.1444 13.3064 33.8104C13.3064 33.4765 13.5771 33.2055 13.9112 33.2055C14.2453 33.2055 14.516 33.4765 14.516 33.8104C14.516 34.1444 14.2453 34.4152 13.9112 34.4152Z" fill="#004989"/>
<path d="M26.0098 31.9961C25.0078 31.9961 24.1953 32.8086 24.1953 33.8106C24.1953 34.8128 25.0078 35.6251 26.0098 35.6251C27.0118 35.6251 27.8244 34.8128 27.8244 33.8106C27.8244 32.8086 27.0118 31.9961 26.0098 31.9961ZM26.0098 34.4154C25.6758 34.4154 25.405 34.1447 25.405 33.8106C25.405 33.4768 25.6758 33.2058 26.0098 33.2058C26.3439 33.2058 26.6147 33.4768 26.6147 33.8106C26.6147 34.1447 26.3439 34.4154 26.0098 34.4154Z" fill="#004989"/>
<path d="M7.86139 31.9961C6.85939 31.9961 6.04688 32.8086 6.04688 33.8106C6.04688 34.8128 6.85939 35.6251 7.86139 35.6251C8.86339 35.6251 9.67591 34.8128 9.67591 33.8106C9.67591 32.8086 8.86339 31.9961 7.86139 31.9961ZM7.86139 34.4154C7.52731 34.4154 7.25655 34.1447 7.25655 33.8106C7.25655 33.4768 7.52731 33.2058 7.86139 33.2058C8.19547 33.2058 8.46623 33.4768 8.46623 33.8106C8.46623 34.1447 8.19547 34.4154 7.86139 34.4154Z" fill="#004989"/>
<path d="M32.0567 31.9958C31.0547 31.9958 30.2422 32.8084 30.2422 33.8104C30.2422 34.8126 31.0547 35.6249 32.0567 35.6249C33.0587 35.6249 33.8712 34.8126 33.8712 33.8104C33.8712 32.8084 33.0587 31.9958 32.0567 31.9958ZM32.0567 34.4152C31.7226 34.4152 31.4519 34.1444 31.4519 33.8104C31.4519 33.4765 31.7226 33.2055 32.0567 33.2055C32.3908 33.2055 32.6615 33.4765 32.6615 33.8104C32.6615 34.1444 32.3908 34.4152 32.0567 34.4152Z" fill="#004989"/>
</svg>
