<svg width="34" height="34" viewBox="0 0 34 34" fill="none" xmlns="http://www.w3.org/2000/svg">
<g clip-path="url(#clip0)">
<path d="M21.3403 4.23639C17.6005 2.3466 13.0954 3.06916 10.1303 6.03434C6.68411 9.48043 6.3392 14.9753 9.32802 18.8158C9.43367 18.9516 9.59158 19.0226 9.75123 19.0226C9.86624 19.0226 9.98212 18.9858 10.0799 18.9096C10.3135 18.7279 10.3555 18.3912 10.1738 18.1577C7.51625 14.7429 7.82338 9.85676 10.8881 6.79204C13.5251 4.15491 17.5313 3.51223 20.8572 5.19277C21.1212 5.32638 21.4435 5.22027 21.577 4.95617C21.7104 4.69207 21.6046 4.3698 21.3403 4.23639Z" fill="#004989"/>
<path d="M25.6183 8.51591C25.4848 8.25181 25.1627 8.14583 24.8984 8.27917C24.6343 8.41258 24.5283 8.73479 24.6617 8.99902C26.341 12.3244 25.698 16.33 23.0616 18.9664C19.9968 22.031 15.1107 22.3381 11.6959 19.6807C11.4623 19.499 11.1258 19.541 10.944 19.7745C10.7623 20.008 10.8043 20.3446 11.0379 20.5264C12.7873 21.8878 14.8798 22.5575 16.9657 22.5575C19.4591 22.5575 21.943 21.6005 23.8194 19.7241C26.7839 16.7597 27.5068 12.2555 25.6183 8.51591Z" fill="#004989"/>
<path d="M24.2343 6.47513C24.1015 6.32492 23.9621 6.17657 23.8198 6.03433C23.6775 5.89202 23.5292 5.75257 23.379 5.61982C23.1572 5.42379 22.8186 5.44477 22.6227 5.6665C22.4266 5.88817 22.4475 6.22677 22.6692 6.42274C22.803 6.54094 22.9352 6.66526 23.062 6.79203C23.1887 6.91886 23.313 7.05095 23.4313 7.18475C23.5372 7.30455 23.6847 7.36571 23.833 7.36571C23.9591 7.36571 24.0857 7.32142 24.1876 7.23137C24.4094 7.03547 24.4303 6.69687 24.2343 6.47513Z" fill="#004989"/>
<path d="M29.6206 13.8398C29.9778 13.2536 29.9778 12.5255 29.6204 11.9395L28.9155 10.7835C28.8227 10.6312 28.7868 10.4503 28.8145 10.2742L29.0246 8.93924C29.1318 8.2589 28.8522 7.58468 28.2954 7.17953L27.2029 6.38491C27.0585 6.27979 26.9558 6.12646 26.9138 5.95287L26.5956 4.6381C26.4341 3.97025 25.9189 3.45507 25.2511 3.29343L23.9363 2.97521C23.7627 2.93318 23.6092 2.83051 23.5042 2.68608L22.7095 1.59336C22.3044 1.03648 21.6301 0.756842 20.95 0.864022L19.6145 1.07413C19.4384 1.10182 19.2575 1.06596 19.1053 0.973127L17.9491 0.268024C17.363 -0.0893747 16.6349 -0.0893083 16.0488 0.268024L14.8928 0.972928C14.7406 1.06583 14.5598 1.10156 14.3835 1.07393L13.0485 0.863822C12.3683 0.756775 11.694 1.03628 11.2889 1.59316L10.4943 2.68562C10.3892 2.83005 10.2358 2.93271 10.0621 2.97475L8.74732 3.2929C8.07961 3.4544 7.56429 3.96965 7.40266 4.63743L7.08444 5.95228C7.0424 6.12586 6.93981 6.27933 6.79531 6.38432L5.70259 7.17907C5.1457 7.58408 4.86627 8.25824 4.97325 8.93857L5.18336 10.2741C5.21105 10.4502 5.17519 10.6311 5.08235 10.7833L4.37732 11.9395C4.02005 12.5256 4.02005 13.2537 4.37738 13.8398L5.08229 14.9958C5.17512 15.1481 5.21105 15.329 5.18329 15.5051L4.97318 16.8401C4.86607 17.5204 5.14557 18.1947 5.70246 18.5998L6.79491 19.3944C6.93934 19.4994 7.04201 19.6528 7.08404 19.8264L7.40219 21.1412C7.56369 21.8091 8.07894 22.3242 8.74672 22.4859L9.29577 22.6187L5.58007 30.9072C5.50111 31.0834 5.52296 31.2883 5.63738 31.4438C5.75173 31.5993 5.94079 31.6814 6.13257 31.6584L9.12232 31.3009L10.8446 33.7706C10.9454 33.9151 11.1099 33.9999 11.284 33.9999C11.3006 33.9999 11.3175 33.9991 11.3342 33.9976C11.5264 33.9796 11.6941 33.8594 11.7731 33.6834L15.5679 25.218L16.0487 25.5111C16.3418 25.6898 16.6703 25.7792 16.9988 25.7792C17.3274 25.7792 17.6559 25.6898 17.949 25.5111L18.4472 25.2074L22.2467 33.6834C22.3257 33.8596 22.4933 33.9796 22.6856 33.9976C22.7024 33.9992 22.7192 34 22.7358 34C22.9099 34 23.0744 33.9151 23.1752 33.7707L24.8975 31.301L27.8872 31.6585C28.0789 31.6812 28.2681 31.5994 28.3824 31.4439C28.4968 31.2884 28.5188 31.0834 28.4397 30.9073L24.7221 22.6142L25.2505 22.4864C25.9182 22.3249 26.4335 21.8097 26.5952 21.1419L26.9134 19.827C26.9554 19.6534 27.0581 19.5 27.2025 19.395L28.2952 18.6002C28.8521 18.1952 29.1316 17.5211 29.0246 16.8407L28.8145 15.5052C28.7868 15.3291 28.8226 15.1482 28.9155 14.996L29.6206 13.8398ZM11.1823 32.3815L9.81739 30.4243C9.70424 30.262 9.51073 30.1751 9.3143 30.1988L6.94499 30.4821L10.3303 22.9301C10.3922 22.9756 10.4477 23.0301 10.4935 23.0932L11.2882 24.1859C11.3637 24.2897 11.4486 24.3838 11.5411 24.4676L9.75922 28.4425C9.63823 28.7125 9.75896 29.0295 10.029 29.1505C10.1002 29.1825 10.1746 29.1976 10.2478 29.1976C10.4524 29.1976 10.6479 29.0796 10.737 28.8808L12.5126 24.9201C12.6873 24.944 12.8672 24.9436 13.0477 24.9152L14.3832 24.7051C14.4631 24.6926 14.5439 24.6937 14.6226 24.7067L11.1823 32.3815ZM27.0749 30.4819L24.7056 30.1988C24.5089 30.1752 24.3156 30.262 24.2025 30.4243L22.8376 32.3815L19.3958 24.7037C19.468 24.6939 19.5416 24.6939 19.6145 24.7053L20.9494 24.9154C21.1373 24.945 21.3245 24.944 21.5058 24.917L23.2827 28.8809C23.3719 29.0798 23.5673 29.1977 23.772 29.1977C23.8452 29.1977 23.9196 29.1826 23.9908 29.1507C24.2608 29.0297 24.3816 28.7126 24.2605 28.4426L22.4719 24.4526C22.5581 24.3725 22.6379 24.2838 22.709 24.1861L23.5036 23.0936C23.5537 23.0248 23.615 22.9657 23.684 22.918L27.0749 30.4819ZM28.7056 13.2818L28.0005 14.438C27.7757 14.8068 27.6887 15.245 27.7559 15.6717L27.966 17.0071C28.0101 17.288 27.8947 17.5663 27.6649 17.7335L26.5721 18.5283C26.2224 18.7828 25.9736 19.1545 25.8719 19.5749L25.5536 20.8897C25.4869 21.1654 25.2743 21.3781 24.9986 21.4448L23.6837 21.763C23.2632 21.8647 22.8915 22.1135 22.637 22.4633L21.8424 23.5557C21.6752 23.7857 21.3969 23.901 21.116 23.8568L19.7809 23.6467C19.3541 23.5795 18.9159 23.6664 18.547 23.8913L17.3911 24.5962C17.1492 24.7436 16.8485 24.7436 16.6067 24.5962L15.4505 23.8912C15.163 23.7159 14.8333 23.6245 14.4998 23.6245C14.4055 23.6245 14.3107 23.6318 14.2167 23.6466L12.8813 23.8567C12.6004 23.9009 12.3221 23.7854 12.1549 23.5556L11.3601 22.4629C11.1056 22.1131 10.7339 21.8644 10.3135 21.7626L8.99867 21.4444C8.72302 21.3777 8.51032 21.165 8.44358 20.8893L8.12543 19.5746C8.02369 19.1541 7.775 18.7823 7.4251 18.5278L6.33272 17.7331C6.10282 17.5659 5.98747 17.2875 6.0317 17.0067L6.24181 15.6716C6.30895 15.2449 6.22209 14.8067 5.99717 14.4378L5.29226 13.2817C5.14478 13.0398 5.14478 12.7392 5.29226 12.4974L5.9973 11.3412C6.22215 10.9723 6.30908 10.5342 6.24194 10.1075L6.03183 8.77202C5.98767 8.49119 6.10309 8.21288 6.33292 8.04567L7.4257 7.25085C7.77546 6.99639 8.02422 6.62471 8.12596 6.20429L8.44418 4.88944C8.51091 4.61379 8.72355 4.40109 8.99927 4.33435L10.3141 4.0162C10.7346 3.91446 11.1063 3.66571 11.3607 3.31588L12.1554 2.22343C12.3226 1.99353 12.6008 1.87805 12.8818 1.92234L14.2168 2.13245C14.6437 2.19972 15.0819 2.11273 15.4507 1.88781L16.6066 1.18291C16.8486 1.03548 17.1493 1.03548 17.391 1.18291L18.5472 1.88788C18.9161 2.11286 19.3543 2.19979 19.781 2.13258L21.1165 1.92247C21.3973 1.87845 21.6756 1.99373 21.8429 2.22356L22.6377 3.31628C22.8921 3.66604 23.2638 3.9148 23.6842 4.01653L24.9991 4.33475C25.2747 4.40149 25.4874 4.61412 25.5542 4.88984L25.8723 6.20462C25.9741 6.62511 26.2228 6.99692 26.5727 7.25139L27.6651 8.046C27.895 8.21321 28.0103 8.49159 27.9661 8.77242L27.756 10.1075C27.6889 10.5343 27.7757 10.9724 28.0007 11.3413L28.7056 12.4974C28.8531 12.7393 28.8531 13.0399 28.7056 13.2818Z" fill="#004989"/>
<path d="M23.2682 11.2224C23.1501 10.8589 22.841 10.6051 22.4614 10.5601L19.2373 10.1778L17.8774 7.22965C17.7173 6.88261 17.3804 6.66699 16.9982 6.66699C16.616 6.66699 16.2791 6.88261 16.119 7.22965L14.7591 10.1778L11.535 10.5601C11.1554 10.6052 10.8462 10.859 10.7282 11.2225C10.6102 11.5858 10.7111 11.9729 10.9916 12.2323L13.3753 14.4367L12.7425 17.6211C12.6681 17.9961 12.8139 18.3685 13.1232 18.593C13.2938 18.717 13.4917 18.7797 13.691 18.7797C13.8529 18.7797 14.0156 18.7383 14.1651 18.6546L16.9981 17.0689L19.8312 18.6546C20.1647 18.8413 20.5639 18.8178 20.8731 18.5931C21.1824 18.3685 21.3282 17.996 21.2537 17.6211L20.621 14.4367L23.0047 12.2324C23.2853 11.9729 23.3862 11.5859 23.2682 11.2224ZM19.6733 13.8536C19.5365 13.9801 19.4753 14.1687 19.5115 14.3514L20.159 17.61L17.2598 15.9873C17.1786 15.9418 17.0884 15.919 16.9981 15.919C16.9079 15.919 16.8178 15.9417 16.7364 15.9873L13.8372 17.61L14.4847 14.3514C14.5211 14.1686 14.4598 13.9801 14.3229 13.8536L11.8837 11.5978L15.1832 11.2066C15.3682 11.1847 15.5286 11.0681 15.6066 10.899L16.9982 7.8821L18.3897 10.899C18.4678 11.0681 18.6281 11.1847 18.8132 11.2066L22.1126 11.5978L19.6733 13.8536Z" fill="#004989"/>
</g>
<defs>
<clipPath id="clip0">
<rect width="34" height="34" fill="white"/>
</clipPath>
</defs>
</svg>
