<svg width="34" height="40" viewBox="0 0 34 40" fill="none" xmlns="http://www.w3.org/2000/svg">
<path d="M16.9992 3.125C16.5666 3.125 16.2188 3.47344 16.2188 3.90547C16.2188 4.30758 16.5213 4.64219 16.9211 4.68187C17.384 4.72781 17.7797 4.36726 17.7797 3.90547C17.7797 3.47281 17.4313 3.125 16.9992 3.125Z" fill="#004989"/>
<path d="M32.625 4.6875C30.4711 4.6875 28.7188 2.93516 28.7188 0.78125C28.7188 0.349844 28.3689 0 27.9375 0H6.0625C5.63109 0 5.28125 0.349844 5.28125 0.78125C5.28125 2.93516 3.52891 4.6875 1.375 4.6875C0.943594 4.6875 0.59375 5.03734 0.59375 5.46875V18.218C0.59375 28.1537 7.06992 37.0566 16.7756 39.9671C16.8488 39.989 16.9244 40 17 40C17.0756 40 17.1513 39.989 17.2245 39.967C26.7199 37.1187 33.4062 28.371 33.4062 18.218V5.46875C33.4062 5.03734 33.0564 4.6875 32.625 4.6875ZM31.8438 18.218C31.8438 27.5498 25.889 35.6314 17 38.4018C8.18187 35.6535 2.15625 27.4988 2.15625 18.218V6.19438C4.54773 5.85078 6.44453 3.95398 6.78813 1.5625H27.2119C27.5555 3.95398 29.4523 5.85078 31.8438 6.19438V18.218Z" fill="#004989"/>
<path d="M29.8134 7.22578C28.1842 6.51227 26.894 5.22203 26.1805 3.59281C26.0559 3.30859 25.7752 3.125 25.4648 3.125H20.1234C19.692 3.125 19.3422 3.47484 19.3422 3.90625C19.3422 4.33766 19.692 4.6875 20.1234 4.6875H24.9709C25.7963 6.3032 27.103 7.60992 28.7188 8.43539V18.218C28.7188 25.8635 24.129 32.4604 17 35.1011C9.87102 32.4603 5.28125 25.8635 5.28125 18.218V8.43539C6.89695 7.60992 8.20367 6.3032 9.02914 4.6875H13.8766C14.308 4.6875 14.6578 4.33766 14.6578 3.90625C14.6578 3.47484 14.308 3.125 13.8766 3.125H8.53516C8.22484 3.125 7.94406 3.30867 7.81953 3.59281C7.10602 5.22203 5.81578 6.51227 4.18656 7.22578C3.90242 7.35031 3.71875 7.63117 3.71875 7.94141V18.218C3.71875 26.594 8.8993 33.894 16.7394 36.6684C16.8237 36.6983 16.9118 36.7132 17 36.7132C17.0882 36.7132 17.1763 36.6983 17.2606 36.6684C25.0941 33.8963 30.2812 26.6008 30.2812 18.218V7.94141C30.2812 7.63109 30.0976 7.35031 29.8134 7.22578Z" fill="#004989"/>
<path d="M17 11.4062C13.123 11.4062 9.96875 14.5605 9.96875 18.4375C9.96875 22.3145 13.123 25.4688 17 25.4688C20.877 25.4688 24.0312 22.3145 24.0312 18.4375C24.0312 14.5605 20.877 11.4062 17 11.4062ZM17 23.9062C13.9845 23.9062 11.5312 21.453 11.5312 18.4375C11.5312 15.422 13.9845 12.9688 17 12.9688C20.0155 12.9688 22.4688 15.422 22.4688 18.4375C22.4688 21.453 20.0155 23.9062 17 23.9062Z" fill="#004989"/>
<path d="M20.6775 16.3225C20.3723 16.0175 19.8778 16.0175 19.5726 16.3225L16.2188 19.6763L15.2087 18.6663C14.9036 18.3613 14.409 18.3613 14.1038 18.6663C13.7987 18.9714 13.7987 19.4661 14.1038 19.7713L15.6663 21.3338C15.819 21.4862 16.0188 21.5625 16.2188 21.5625C16.4188 21.5625 16.6187 21.4862 16.7712 21.3337L20.6775 17.4274C20.9826 17.1223 20.9826 16.6277 20.6775 16.3225Z" fill="#004989"/>
</svg>
