<svg width="40" height="40" viewBox="0 0 40 40" fill="none" xmlns="http://www.w3.org/2000/svg">
<g clip-path="url(#clip0)">
<path d="M38.7056 8.68469H30.0209C29.675 8.68469 29.3945 8.96508 29.3945 9.31102V9.97907C29.3945 10.3705 29.0761 10.6889 28.6847 10.6889C28.2933 10.6889 27.9748 10.3705 27.9748 9.97907V9.31102C27.9748 8.96516 27.6945 8.68469 27.3485 8.68469H1.29438C0.580625 8.68469 0 9.26532 0 9.97907V30.0208C0 30.7345 0.580625 31.3152 1.29438 31.3152H27.3487C27.6945 31.3152 27.975 31.0348 27.975 30.6888V30.0208C27.975 29.6294 28.2934 29.3109 28.6848 29.3109C29.0762 29.3109 29.3947 29.6294 29.3947 30.0208V30.6888C29.3947 31.0347 29.6751 31.3152 30.021 31.3152H38.7058C39.4195 31.3152 40.0002 30.7345 40.0002 30.0208V9.97907C40 9.26532 39.4194 8.68469 38.7056 8.68469ZM38.7474 19.3736H20.668C20.3222 19.3736 20.0417 19.654 20.0417 19.9999C20.0417 20.3458 20.3221 20.6263 20.668 20.6263H38.7473V30.0208C38.7473 30.0438 38.7287 30.0625 38.7056 30.0625H30.6472V30.0208C30.6472 29.1577 30.0869 28.4234 29.3111 28.1614V26.6805C29.3111 26.3346 29.0307 26.0541 28.6848 26.0541C28.3389 26.0541 28.0584 26.3345 28.0584 26.6805V28.1614C27.2827 28.4234 26.7223 29.1577 26.7223 30.0208V30.0625H15.2819V26.0124C15.2819 25.6666 15.0015 25.3861 14.6555 25.3861C14.3096 25.3861 14.0292 25.6665 14.0292 26.0124V30.0625H1.29438C1.27133 30.0625 1.25266 30.0438 1.25266 30.0208V20.6263H8.64305C8.98891 20.6263 9.26937 20.3459 9.26937 19.9999C9.26937 19.6541 8.98898 19.3736 8.64305 19.3736H1.25258V9.97907C1.25258 9.95602 1.27125 9.93735 1.2943 9.93735H14.0291V13.9874C14.0291 14.3333 14.3095 14.6138 14.6555 14.6138C15.0014 14.6138 15.2818 14.3334 15.2818 13.9874V9.93735H26.7223V9.97907C26.7223 10.8422 27.2826 11.5764 28.0584 11.8384V13.3194C28.0584 13.6652 28.3388 13.9457 28.6847 13.9457C29.0305 13.9457 29.311 13.6653 29.311 13.3194V11.8384C30.0868 11.5764 30.6471 10.8422 30.6471 9.97907V9.93735H38.7055C38.7286 9.93735 38.7473 9.95602 38.7473 9.97907V19.3736H38.7474Z" fill="#004989"/>
<path d="M28.6849 15.3652C28.3391 15.3652 28.0586 15.6456 28.0586 15.9916V17.3277C28.0586 17.6735 28.339 17.954 28.6849 17.954C29.0308 17.954 29.3112 17.6736 29.3112 17.3277V15.9916C29.3112 15.6457 29.0308 15.3652 28.6849 15.3652Z" fill="#004989"/>
<path d="M28.6849 22.0459C28.3391 22.0459 28.0586 22.3263 28.0586 22.6722V24.0083C28.0586 24.3542 28.339 24.6346 28.6849 24.6346C29.0308 24.6346 29.3112 24.3543 29.3112 24.0083V22.6722C29.3112 22.3263 29.0308 22.0459 28.6849 22.0459Z" fill="#004989"/>
<path d="M21.0665 22.0909C20.1637 21.1882 18.3905 20.4691 16.9579 20.0003C18.3905 19.5315 20.1637 18.8124 21.0664 17.9096C21.6435 17.3325 21.9613 16.5652 21.9613 15.7489C21.9613 14.9328 21.6435 14.1655 21.0664 13.5882C20.4893 13.0109 19.722 12.6934 18.9058 12.6934C18.0897 12.6934 17.3223 13.0112 16.7451 13.5883C15.8424 14.491 15.1234 16.2643 14.6544 17.6968C14.1855 16.2642 13.4666 14.491 12.5637 13.5883C11.9866 13.0112 11.2193 12.6934 10.403 12.6934C9.58695 12.6934 8.81961 13.0112 8.24242 13.5883C7.66523 14.1654 7.34766 14.9327 7.34766 15.749C7.34766 16.5652 7.66547 17.3325 8.24258 17.9097C9.14531 18.8124 10.9186 19.5315 12.3511 20.0004C10.9185 20.4692 9.14531 21.1883 8.24258 22.0911C7.66547 22.6681 7.34766 23.4354 7.34766 24.2516C7.34766 25.0677 7.66547 25.835 8.24258 26.4123C8.81969 26.9895 9.58703 27.3072 10.4033 27.3072C11.2194 27.3072 11.9868 26.9894 12.564 26.4123C13.4667 25.5095 14.1858 23.7363 14.6547 22.3038C15.1236 23.7363 15.8426 25.5095 16.7454 26.4123C17.3225 26.9894 18.0898 27.3072 18.906 27.3072C19.7221 27.3072 20.4894 26.9894 21.0667 26.4123C21.6439 25.8352 21.9615 25.0678 21.9615 24.2516C21.9615 23.4353 21.6436 22.6681 21.0665 22.0909ZM9.12828 17.0241C8.78781 16.6834 8.60023 16.2306 8.60023 15.7491C8.60023 15.2675 8.78781 14.8147 9.12836 14.4741C9.4689 14.1336 9.92164 13.946 10.4033 13.946C10.8849 13.946 11.3377 14.1336 11.6782 14.4741C12.5744 15.3703 13.3566 17.6267 13.7816 19.1277C12.2812 18.7031 10.0257 17.9214 9.12828 17.0241ZM11.6781 25.5265C11.3376 25.867 10.8848 26.0546 10.4032 26.0546C9.92156 26.0546 9.46883 25.867 9.12828 25.5265C8.78773 25.1859 8.60015 24.7332 8.60015 24.2516C8.60015 23.7699 8.78773 23.3172 9.12828 22.9767C10.0245 22.0805 12.2809 21.2983 13.7819 20.8732C13.3571 22.3736 12.5755 24.6292 11.6781 25.5265ZM17.6308 14.4741C17.9714 14.1336 18.4242 13.946 18.9058 13.946C19.3873 13.946 19.8401 14.1336 20.1807 14.4741C20.5212 14.8147 20.7088 15.2674 20.7088 15.7491C20.7088 16.2307 20.5212 16.6834 20.1807 17.024C19.2845 17.9202 17.0281 18.7023 15.5271 19.1274C15.9519 17.627 16.7335 15.3715 17.6308 14.4741ZM20.1807 25.5265C19.8401 25.867 19.3874 26.0546 18.9058 26.0546C18.4241 26.0546 17.9714 25.867 17.6308 25.5265C16.7347 24.6303 15.9525 22.3739 15.5274 20.8729C17.0279 21.2976 19.2833 22.0792 20.1808 22.9767C20.5213 23.3172 20.7089 23.7699 20.7089 24.2516C20.7089 24.7332 20.5212 25.1859 20.1807 25.5265Z" fill="#004989"/>
</g>
<defs>
<clipPath id="clip0">
<rect width="40" height="40" fill="white"/>
</clipPath>
</defs>
</svg>
