<svg width="40" height="40" viewBox="0 0 40 40" fill="none" xmlns="http://www.w3.org/2000/svg">
<path d="M35.5586 9.12148C36.1169 7.97742 36.4992 6.79094 36.4992 5.68586C36.4992 2.5507 33.9485 0 30.8133 0C28.7835 0 26.9998 1.06992 25.9936 2.67461C24.8906 2.35188 23.7527 2.1275 22.6063 2.00945C22.2791 1.97547 21.9856 2.21398 21.9519 2.54172C21.9181 2.86937 22.1565 3.16234 22.4841 3.19602C23.4909 3.29961 24.4908 3.48992 25.4631 3.76219C25.2463 4.36336 25.1275 5.01094 25.1275 5.68586C25.1275 9.70383 30.1767 14.7992 30.3916 15.0141C30.6213 15.2438 31.0054 15.2438 31.2351 15.0141C31.3708 14.8784 33.4341 12.7962 34.9366 10.2684C36.1626 11.9037 37.0828 13.7007 37.6788 15.6069L29.0279 16.5175C28.8735 16.5338 28.7315 16.6096 28.6321 16.7289C28.5425 16.8364 26.4264 19.3795 25.3427 21.0083C24.117 21.0898 22.996 21.5602 22.1038 22.2988L21.9913 21.6245L21.2226 17.0386C21.1991 16.8985 21.1265 16.7716 21.0178 16.6802L16.4055 12.8101C16.3175 12.7362 16.21 12.6895 16.096 12.6752L11.3701 12.0845C10.7894 10.4241 9.45961 9.11359 7.78734 8.55898C10.9642 5.26055 15.1977 3.33539 19.7873 3.12109C20.1163 3.10578 20.3706 2.82656 20.3552 2.49758C20.3399 2.16859 20.0607 1.91273 19.7317 1.92961C17.1402 2.05055 14.6481 2.68406 12.3248 3.81227C10.0728 4.90586 8.08352 6.41133 6.41195 8.2868C6.27648 8.27711 6.14016 8.27039 6.00227 8.27039C2.86711 8.27039 0.316406 10.8211 0.316406 13.9563C0.316406 15.3727 0.944219 16.923 1.76625 18.3463C1.64867 19.2048 1.58875 20.082 1.58875 20.9543C1.58875 26.0416 3.56992 30.8244 7.16711 34.4216C10.7643 38.0188 15.5471 40 20.6344 40C25.7217 40 30.5045 38.0188 34.1017 34.4216C37.699 30.8244 39.6801 26.0416 39.6801 20.9543C39.6801 16.6071 38.2548 12.517 35.5586 9.12148ZM30.8133 13.7259C29.622 12.4334 26.3202 8.58906 26.3202 5.68586C26.3202 3.20844 28.3358 1.19281 30.8133 1.19281C33.2908 1.19281 35.3063 3.20836 35.3063 5.68586C35.3063 8.58914 32.0046 12.4334 30.8133 13.7259ZM25.7238 22.1869C28.2013 22.1869 30.2169 24.2024 30.2169 26.6799C30.2169 29.5831 26.9152 33.4274 25.7238 34.72C24.5325 33.4274 21.2308 29.5831 21.2308 26.6799C21.2308 24.2025 23.2464 22.1869 25.7238 22.1869ZM1.50914 13.9563C1.50914 11.4788 3.52469 9.4632 6.00219 9.4632C8.47969 9.4632 10.4952 11.4788 10.4952 13.9563C10.4952 16.8595 7.19359 20.7038 6.00219 21.9963C4.81078 20.7038 1.50914 16.8595 1.50914 13.9563ZM2.78148 20.9543C2.78148 20.6244 2.79094 20.2937 2.80898 19.9637C4.11664 21.8085 5.47133 23.1755 5.58047 23.2845C5.81008 23.5142 6.19438 23.5142 6.42391 23.2845C6.53609 23.1723 7.96578 21.7298 9.3068 19.8051L11.6335 25.0402C11.6833 25.1523 11.7665 25.2463 11.8717 25.3094L15.3063 27.3702L13.7639 32.0443L9.76836 35.1092C5.52289 31.8424 2.78148 26.7128 2.78148 20.9543ZM10.782 35.8348L14.6355 32.8788C14.7304 32.806 14.8013 32.7062 14.8388 32.5925L16.5884 27.2909C16.6758 27.0261 16.568 26.7361 16.3289 26.5927L12.647 24.3834L10.082 18.6121C10.9795 17.1178 11.6881 15.4614 11.6881 13.9563C11.6881 13.7417 11.6751 13.5302 11.6519 13.3218L15.7735 13.837L20.0826 17.4527L20.8148 21.8211L21.0791 23.4067C20.4244 24.333 20.038 25.4618 20.038 26.68C20.038 27.4728 20.2352 28.3076 20.5524 29.1385L18.8732 33.907L13.1752 37.1722C12.3409 36.7868 11.5412 36.3391 10.782 35.8348ZM20.6344 38.8072C18.5069 38.8072 16.4655 38.4324 14.5717 37.7466L19.6586 34.8316C19.7827 34.7604 19.8771 34.6471 19.9246 34.5122L21.2723 30.6852C22.782 33.4662 25.1563 35.8623 25.3021 36.0082C25.5319 36.2379 25.9159 36.2379 26.1456 36.0082C26.3131 35.8408 29.4145 32.7111 30.7767 29.4364L35.6527 30.5973C32.4729 35.5324 26.929 38.8072 20.6344 38.8072ZM31.1706 28.3041C31.3221 27.7531 31.4098 27.2072 31.4098 26.68C31.4098 23.8916 29.3915 21.5672 26.7395 21.0867C27.6552 19.8066 28.9533 18.2146 29.3948 17.6784L37.9999 16.7726C38.3224 18.1249 38.4873 19.5247 38.4873 20.9542C38.4873 24.0576 37.6907 26.9782 36.2921 29.5234L31.1706 28.3041Z" fill="#004989"/>
<path d="M25.7271 23.5391C23.9951 23.5391 22.5859 24.9482 22.5859 26.6802C22.5859 28.4123 23.9951 29.8214 25.7271 29.8214C27.4591 29.8214 28.8683 28.4123 28.8683 26.6802C28.8683 24.9482 27.4591 23.5391 25.7271 23.5391ZM25.7271 28.6285C24.6527 28.6285 23.7788 27.7545 23.7788 26.6802C23.7788 25.606 24.6528 24.732 25.7271 24.732C26.8015 24.732 27.6754 25.606 27.6754 26.6802C27.6754 27.7545 26.8015 28.6285 25.7271 28.6285Z" fill="#004989"/>
<path d="M30.817 2.54492C29.0849 2.54492 27.6758 3.95406 27.6758 5.68609C27.6758 7.41812 29.0849 8.82727 30.817 8.82727C32.549 8.82727 33.9581 7.41812 33.9581 5.68609C33.9581 3.95406 32.549 2.54492 30.817 2.54492ZM30.817 7.63438C29.7426 7.63438 28.8687 6.76031 28.8687 5.68609C28.8687 4.6118 29.7427 3.73781 30.817 3.73781C31.8913 3.73781 32.7652 4.61187 32.7652 5.68609C32.7653 6.76031 31.8913 7.63438 30.817 7.63438Z" fill="#004989"/>
<path d="M6.00348 10.8154C4.27145 10.8154 2.8623 12.2246 2.8623 13.9566C2.8623 15.6886 4.27145 17.0978 6.00348 17.0978C7.73551 17.0978 9.14465 15.6886 9.14465 13.9566C9.14465 12.2246 7.73551 10.8154 6.00348 10.8154ZM6.00348 15.905C4.92918 15.905 4.0552 15.0309 4.0552 13.9567C4.0552 12.8824 4.92926 12.0084 6.00348 12.0084C7.07777 12.0084 7.95176 12.8825 7.95176 13.9567C7.95176 15.0309 7.07777 15.905 6.00348 15.905Z" fill="#004989"/>
</svg>
