<svg width="256" height="256" viewBox="0 0 256 256" fill="none" xmlns="http://www.w3.org/2000/svg">
<rect width="256" height="256" fill="white"/>
<path d="M142.1 74C147.92 74.0599 152.66 77.0566 155.42 82.4506C156.132 83.874 157.126 85.953 158.167 88.146L159.423 90.7979L160.04 92.0999L160.64 93.4184C160.88 93.838 161.3 94.1376 161.84 94.1376C176.24 94.1376 188 105.885 188 120.269V155.869C188 170.253 176.24 182 161.84 182H94.16C79.7 182 68 170.253 68 155.869V120.269C68 105.885 79.7 94.1376 94.16 94.1376C94.64 94.1376 95.12 93.8979 95.3 93.4184L95.66 92.6992C97.34 89.1632 99.38 84.8479 100.58 82.4506C103.34 77.0566 108.02 74.0599 113.84 74H142.1ZM128 112.417C121.7 112.417 115.76 114.875 111.26 119.37C106.82 123.865 104.36 129.738 104.42 135.971C104.42 142.264 106.88 148.138 111.32 152.633C115.82 157.068 121.7 159.525 128 159.525C134.48 159.525 140.36 156.888 144.62 152.633C148.88 148.377 151.52 142.504 151.58 135.971C151.58 129.738 149.12 123.805 144.68 119.31C140.24 114.875 134.3 112.417 128 112.417ZM128 121.407C131.9 121.407 135.56 122.906 138.32 125.663C141.08 128.42 142.58 132.075 142.58 135.971C142.52 144.002 136.04 150.535 128 150.535C124.1 150.535 120.44 149.037 117.68 146.28C114.92 143.523 113.42 139.867 113.42 135.971V135.911C113.36 132.135 114.86 128.479 117.62 125.723C120.44 122.906 124.1 121.407 128 121.407ZM161.66 110.979C158.66 110.979 156.26 113.436 156.26 116.433C156.26 119.43 158.66 121.827 161.66 121.827C164.66 121.827 167.12 119.43 167.12 116.433C167.12 113.436 164.66 110.979 161.66 110.979Z" fill="#EEEFF3"/>
</svg>
